# xmcd
#
# Track frame offsets: 
#        150
#        21930
#        40255
#        70053
#        88499
#        112655
#        139014
#        164198
#        184082
#        203658
#        235643
#
# Disc length: 3618 seconds
#
# Revision: 0
# Processed by: cddbd v1.5.2PL0 Copyright (c) Steve Scherf et al.
# Submitted via: ExactAudioCopy v1.0b3
#
DISCID=930e200b
DTITLE=Two Timer - Two Timer
DYEAR=2014
DGENRE=Blues
TTITLE0=Ego
TTITLE1=Tools Blues
TTITLE2=Ginger Chicks
TTITLE3=Got 2 Drink
TTITLE4=Yellow Snow
TTITLE5=Why?
TTITLE6=Moon
TTITLE7=I'm Fat
TTITLE8=Here It Comes
TTITLE9=Devil Woman
TTITLE10=Angry
EXTD=
EXTT0=
EXTT1=
EXTT2=
EXTT3=
EXTT4=
EXTT5=
EXTT6=
EXTT7=
EXTT8=
EXTT9=
EXTT10=
PLAYORDER=
